<svg xmlns="http://www.w3.org/2000/svg" width="512" height="512" viewBox="0 0 512 512">
  <defs>
    <linearGradient id="bg" x1="0%" y1="0%" x2="100%" y2="100%">
      <stop offset="0%" style="stop-color:#1a1a2e"/>
      <stop offset="100%" style="stop-color:#16213e"/>
    </linearGradient>
    <linearGradient id="ghostGrad" x1="0%" y1="0%" x2="0%" y2="100%">
      <stop offset="0%" style="stop-color:#ffffff"/>
      <stop offset="100%" style="stop-color:#e8e8e8"/>
    </linearGradient>
  </defs>
  <rect width="512" height="512" rx="100" fill="url(#bg)"/>
  <g transform="translate(96,70) scale(3.2)">
    <path d="M50 10 C25 10 15 35 15 55 L15 85 L25 75 L35 85 L50 75 L65 85 L75 75 L85 85 L85 55 C85 35 75 10 50 10 Z" fill="url(#ghostGrad)"/>
    <ellipse cx="38" cy="45" rx="8" ry="10" fill="#1a1a2e"/>
    <ellipse cx="62" cy="45" rx="8" ry="10" fill="#1a1a2e"/>
    <ellipse cx="30" cy="55" rx="6" ry="3" fill="#ffcccc" opacity="0.5"/>
    <ellipse cx="70" cy="55" rx="6" ry="3" fill="#ffcccc" opacity="0.5"/>
  </g>
</svg>